<mxfile host="app.diagrams.net" agent="Mozilla/5.0 (Windows NT 10.0; Win64; x64) AppleWebKit/537.36 (KHTML, like Gecko) Chrome/138.0.0.0 Safari/537.36" version="28.0.4">
  <diagram name="Page-1" id="eu0JSfuJIhrvZI9T3s6s">
    <mxGraphModel dx="1768" dy="489" grid="1" gridSize="10" guides="1" tooltips="1" connect="1" arrows="1" fold="1" page="1" pageScale="1" pageWidth="850" pageHeight="1100" math="0" shadow="0">
      <root>
        <mxCell id="0" />
        <mxCell id="1" parent="0" />
        <mxCell id="DsKD-aixldcRXifvy8ox-3" style="edgeStyle=orthogonalEdgeStyle;rounded=0;orthogonalLoop=1;jettySize=auto;html=1;" edge="1" parent="1" source="DsKD-aixldcRXifvy8ox-1" target="DsKD-aixldcRXifvy8ox-2">
          <mxGeometry relative="1" as="geometry" />
        </mxCell>
        <mxCell id="DsKD-aixldcRXifvy8ox-1" value="" style="image;html=1;image=img/lib/clip_art/networking/Cloud_128x128.png" vertex="1" parent="1">
          <mxGeometry x="380" y="200" width="80" height="80" as="geometry" />
        </mxCell>
        <mxCell id="DsKD-aixldcRXifvy8ox-2" value="" style="image;html=1;image=img/lib/clip_art/networking/Router_Icon_128x128.png" vertex="1" parent="1">
          <mxGeometry x="380" y="330" width="80" height="80" as="geometry" />
        </mxCell>
        <mxCell id="DsKD-aixldcRXifvy8ox-4" value="192.18.0.2/30" style="text;strokeColor=none;align=center;fillColor=none;html=1;verticalAlign=middle;whiteSpace=wrap;rounded=0;" vertex="1" parent="1">
          <mxGeometry x="440" y="310" width="60" height="30" as="geometry" />
        </mxCell>
        <mxCell id="DsKD-aixldcRXifvy8ox-11" style="edgeStyle=orthogonalEdgeStyle;rounded=0;orthogonalLoop=1;jettySize=auto;html=1;" edge="1" parent="1" source="DsKD-aixldcRXifvy8ox-5">
          <mxGeometry relative="1" as="geometry">
            <mxPoint x="424.9999999999998" y="660" as="targetPoint" />
          </mxGeometry>
        </mxCell>
        <mxCell id="DsKD-aixldcRXifvy8ox-5" value="" style="image;aspect=fixed;html=1;points=[];align=center;fontSize=12;image=img/lib/azure2/networking/Azure_Firewall_Manager.svg;" vertex="1" parent="1">
          <mxGeometry x="390" y="490" width="70" height="60" as="geometry" />
        </mxCell>
        <mxCell id="DsKD-aixldcRXifvy8ox-7" value="10.204.188.1/30" style="text;strokeColor=none;align=center;fillColor=none;html=1;verticalAlign=middle;whiteSpace=wrap;rounded=0;" vertex="1" parent="1">
          <mxGeometry x="440" y="390" width="60" height="30" as="geometry" />
        </mxCell>
        <mxCell id="DsKD-aixldcRXifvy8ox-9" value="10.204.188.2/30" style="text;strokeColor=none;align=center;fillColor=none;html=1;verticalAlign=middle;whiteSpace=wrap;rounded=0;" vertex="1" parent="1">
          <mxGeometry x="440" y="460" width="60" height="30" as="geometry" />
        </mxCell>
        <mxCell id="DsKD-aixldcRXifvy8ox-10" style="edgeStyle=orthogonalEdgeStyle;rounded=0;orthogonalLoop=1;jettySize=auto;html=1;entryX=0.429;entryY=-0.167;entryDx=0;entryDy=0;entryPerimeter=0;" edge="1" parent="1" source="DsKD-aixldcRXifvy8ox-2" target="DsKD-aixldcRXifvy8ox-5">
          <mxGeometry relative="1" as="geometry" />
        </mxCell>
        <mxCell id="DsKD-aixldcRXifvy8ox-12" value="Monitering" style="swimlane;whiteSpace=wrap;html=1;" vertex="1" parent="1">
          <mxGeometry x="200" y="730" width="200" height="200" as="geometry" />
        </mxCell>
        <mxCell id="DsKD-aixldcRXifvy8ox-14" value="Management" style="swimlane;whiteSpace=wrap;html=1;" vertex="1" parent="1">
          <mxGeometry x="640" y="730" width="220" height="200" as="geometry" />
        </mxCell>
        <mxCell id="DsKD-aixldcRXifvy8ox-16" value="Server" style="swimlane;whiteSpace=wrap;html=1;" vertex="1" parent="1">
          <mxGeometry x="920" y="730" width="200" height="200" as="geometry" />
        </mxCell>
        <mxCell id="DsKD-aixldcRXifvy8ox-19" value="Vertical Container" style="swimlane;whiteSpace=wrap;html=1;" vertex="1" parent="1">
          <mxGeometry x="-50" y="730" width="200" height="200" as="geometry" />
        </mxCell>
        <mxCell id="DsKD-aixldcRXifvy8ox-20" value="Vertical Container" style="swimlane;whiteSpace=wrap;html=1;" vertex="1" parent="1">
          <mxGeometry x="-320" y="730" width="200" height="200" as="geometry" />
        </mxCell>
        <mxCell id="DsKD-aixldcRXifvy8ox-13" value="Storage" style="swimlane;whiteSpace=wrap;html=1;" vertex="1" parent="1">
          <mxGeometry x="420" y="730" width="200" height="200" as="geometry" />
        </mxCell>
      </root>
    </mxGraphModel>
  </diagram>
</mxfile>
